<svg width="44" height="44" viewBox="0 0 44 44" fill="none" xmlns="http://www.w3.org/2000/svg">
<path d="M22.0001 0C9.86926 0 6.10352e-05 9.8692 6.10352e-05 22C6.10352e-05 34.1308 9.86926 44 22.0001 44C34.1309 44 44.0001 34.1308 44.0001 22C44.0001 9.8692 34.1309 0 22.0001 0ZM17.6023 31.7086L10.9901 25.1106C10.1304 24.2528 10.1287 22.8606 10.9862 22.0007C11.8442 21.1402 13.2375 21.1386 14.0975 21.9971L17.5979 25.4914L27.6893 15.4C28.5483 14.541 29.941 14.541 30.8001 15.4C31.6591 16.259 31.6591 17.6518 30.8001 18.5108L17.6023 31.7086Z" fill="black" fill-opacity="0.1"/>
</svg>
