<svg width="190" height="32" viewBox="0 0 190 32" fill="none" xmlns="http://www.w3.org/2000/svg">
<path d="M62.7 22.7C66.5 25.7 69.7 26.2 72.5 26.2C77 26.2 81.5 24.2 81.5 19.5C81.5 14.5 77 13.7 75.7 13.5C74.9 13.3 72.2 13 71.4 12.7C70.6 12.7 69.9 12.5 69.9 11.4C69.9 11.4 69.9 10.1 72.2 10.1C73.2 10.1 75.7 10.6 77.2 11.8L80.5 8.6C78.1 6.7 75.1 5.6 72 5.6C67.7 5.6 64 7.8 64 12.3C64 17.1 68.5 17.8 70.8 18.1C73.6 18.6 73.8 18.6 74.3 18.8C74.8 19 75.3 19.3 75.3 20C75.3 20.2 75 20.8 74.3 21.3C73.8 21.5 73 21.5 72.5 21.5C70 21.5 67.7 20.2 66.2 19.2L62.7 22.7ZM103.4 6.3H97.1L93.1 18.5L89.1 6.3H82.6L89.1 24.3C89.4 25.1 89.4 25.3 89.4 25.6C89.4 26.6 88.4 26.6 87.4 26.6H85.1V32H89.4C90.9 32 93.2 32 94.7 30C95.2 29 95.7 28 96.2 26.5L103.4 6.3ZM103.9 22.7C107.7 25.7 110.9 26.2 113.7 26.2C118 26.2 122.7 24.2 122.7 19.5C122.7 14.5 118.2 13.7 116.9 13.5C116.1 13.3 113.1 13 112.6 12.7C111.8 12.7 111.1 12.5 111.1 11.4C111.1 11.4 111.1 10.1 113.1 10.1C114.4 10.1 116.9 10.6 118.4 11.8L121.4 8.6C119.1 6.6 116.1 5.6 112.9 5.6C108.9 5.6 104.9 7.8 104.9 12.3C104.9 17.1 109.4 17.8 111.9 18.1C114.4 18.6 114.9 18.6 115.4 18.8C115.7 19 116.2 19.3 116.2 20C116.2 20.2 116.2 20.8 115.4 21.3C114.9 21.5 114.1 21.5 113.6 21.5C110.8 21.5 108.6 20.2 107.1 19.2L103.9 22.7ZM132.5 10.3H135.5V6.8H132.5V0H126.2V6.8H123.7V10.3H126.2V20.5C126.2 23.8 126.2 26.3 132 26.3C133.5 26.3 134.5 26.1 135.5 26.1V21.4C135.2 21.4 135 21.6 134.5 21.6C132.7 21.6 132.5 20.3 132.5 19.3V10.3ZM157.4 17.3C157.4 15.8 157.4 13.6 156.6 11.5C155.1 8.3 151.6 5.8 147.3 5.8C142 5.8 137.5 9.3 137.5 15.8C137.5 21.3 141 26.3 147.8 26.3C152.1 26.3 155.1 24.3 156.6 22.1C156.9 21.9 157.1 21.3 157.4 21.1L152.6 18.1C152.3 18.8 151.1 21.3 147.8 21.3C146 21.3 144.8 20.5 144.3 19.6C143.8 18.8 143.8 18.1 143.8 17.3H157.4ZM143.8 13.5C144.1 10.3 146.6 10 147.3 10C149.1 10 151.1 10.8 151.1 13.5H143.8ZM166.2 6.3H160.2V25.8H166.7V15C166.7 14 166.7 12.7 167.5 12C168 11.5 168.5 11.5 169.3 11.5C170.3 11.5 170.8 11.7 171.1 12C171.9 12.7 172.1 13.5 172.1 15V25.7H178.4V15C178.4 13.7 178.4 12.7 179.2 12C179.7 11.5 180.5 11.3 181.2 11.3C181.5 11.3 183 11.3 183.5 12.8C183.7 13.3 183.7 13.8 183.7 14.8V25.8H190.2V13.8C189.9 10.6 189.9 8 187.2 6.6C186.2 6.1 184.9 5.9 183.2 5.9C179.4 5.9 178.2 7.9 177.7 8.9C176.9 7.6 176.2 5.9 172.2 5.9C170.4 5.9 168.7 6.4 167.7 7.4C166.9 7.9 166.7 8.4 166.4 8.9V6.3H166.2ZM0 1.7H10.8V13.2H0V1.7ZM14.8 1.7H25.6V13.2H14.8V1.7ZM29.9 1.7H40.7V13.2H29.9V1.7ZM44.9 1.7H55.7V13.2H44.9V1.7ZM0 18.5H10.8V30H0V18.5ZM14.8 18.5H25.6V30H14.8V18.5ZM29.9 18.5H40.7V30H29.9V18.5ZM44.9 18.5H55.7V30H44.9V18.5Z" fill="#0096A7"/>
</svg>
